# xmcd CD database file
#
# Track frame offsets:
#	150
#	24753
#	44123
#	61975
#	82027
#	100341
#	119006
#	142655
#	166190
#	186244
#	203514
#
# Disc length: 3063 seconds
#
# Revision: 0
# Processed by: cddbd v1.5.1PL2 Copyright (c) Steve Scherf et al.
# Submitted via: CDex 1.60beta1-cs1
#
DISCID=900bf50b
DTITLE=Simon Cooper - Solar World
DYEAR=2001
DGENRE=New Age
TTITLE0=Light Of Change
TTITLE1=Chasing The Shadow
TTITLE2=Keeper Of The Flame
TTITLE3=Diamond Ring
TTITLE4=Chi-Lin
TTITLE5=Sands Of Darkness
TTITLE6=Sunset Prophecy
TTITLE7=First Contact
TTITLE8=Midnight Sun
TTITLE9=Dance Of Celebration
TTITLE10=The Mystic Flame
EXTD=YEAR: 2001
EXTT0=
EXTT1=
EXTT2=
EXTT3=
EXTT4=
EXTT5=
EXTT6=
EXTT7=
EXTT8=
EXTT9=
EXTT10=
PLAYORDER=
